<mxfile host="app.diagrams.net" agent="Mozilla/5.0 (Windows NT 10.0; Win64; x64) AppleWebKit/537.36 (KHTML, like Gecko) Chrome/135.0.0.0 Safari/537.36 Edg/135.0.0.0" version="26.1.3">
  <diagram name="Страница — 1" id="QT2vmBxy5T35y_oJY8uC">
    <mxGraphModel dx="570" dy="299" grid="1" gridSize="10" guides="1" tooltips="1" connect="1" arrows="1" fold="1" page="1" pageScale="1" pageWidth="827" pageHeight="1169" math="0" shadow="0">
      <root>
        <mxCell id="0" />
        <mxCell id="1" parent="0" />
        <mxCell id="n1gyFduvwM2Q70atBlgJ-3" value="" style="swimlane;html=1;startSize=20;fontStyle=0;collapsible=0;horizontal=0;swimlaneLine=1;swimlaneFillColor=#ffffff;strokeWidth=2;whiteSpace=wrap;" vertex="1" parent="1">
          <mxGeometry x="80" y="40" width="940" height="200" as="geometry" />
        </mxCell>
        <mxCell id="n1gyFduvwM2Q70atBlgJ-4" value="&lt;font style=&quot;font-size: 14px;&quot;&gt;Клиент&lt;/font&gt;" style="text;html=1;align=center;verticalAlign=middle;whiteSpace=wrap;rounded=0;rotation=-90;" vertex="1" parent="n1gyFduvwM2Q70atBlgJ-3">
          <mxGeometry x="-20" y="30" width="60" height="30" as="geometry" />
        </mxCell>
        <mxCell id="n1gyFduvwM2Q70atBlgJ-7" value="Запуск приложения" style="points=[[0.145,0.145,0],[0.5,0,0],[0.855,0.145,0],[1,0.5,0],[0.855,0.855,0],[0.5,1,0],[0.145,0.855,0],[0,0.5,0]];shape=mxgraph.bpmn.event;html=1;verticalLabelPosition=bottom;labelBackgroundColor=#ffffff;verticalAlign=top;align=center;perimeter=ellipsePerimeter;outlineConnect=0;aspect=fixed;outline=standard;symbol=message;" vertex="1" parent="n1gyFduvwM2Q70atBlgJ-3">
          <mxGeometry x="50" y="20" width="50" height="50" as="geometry" />
        </mxCell>
        <mxCell id="n1gyFduvwM2Q70atBlgJ-8" value="У клиента есть&lt;br&gt;&amp;nbsp;учетная запись?" style="points=[[0.25,0.25,0],[0.5,0,0],[0.75,0.25,0],[1,0.5,0],[0.75,0.75,0],[0.5,1,0],[0.25,0.75,0],[0,0.5,0]];shape=mxgraph.bpmn.gateway2;html=1;verticalLabelPosition=bottom;labelBackgroundColor=#ffffff;verticalAlign=top;align=center;perimeter=rhombusPerimeter;outlineConnect=0;outline=none;symbol=none;gwType=exclusive;" vertex="1" parent="n1gyFduvwM2Q70atBlgJ-3">
          <mxGeometry x="150" y="20" width="50" height="50" as="geometry" />
        </mxCell>
        <mxCell id="n1gyFduvwM2Q70atBlgJ-9" value="Авторизоваться" style="rounded=1;whiteSpace=wrap;html=1;container=1;collapsible=0;absoluteArcSize=1;arcSize=20;childLayout=stackLayout;horizontal=1;horizontalStack=0;resizeParent=1;resizeParentMax=0;resizeLast=0;" vertex="1" parent="n1gyFduvwM2Q70atBlgJ-3">
          <mxGeometry x="274" y="20" width="116" height="50" as="geometry" />
        </mxCell>
        <mxCell id="n1gyFduvwM2Q70atBlgJ-10" value="Зарегистрироваться по номеру телефона" style="rounded=1;whiteSpace=wrap;html=1;container=1;collapsible=0;absoluteArcSize=1;arcSize=20;childLayout=stackLayout;horizontal=1;horizontalStack=0;resizeParent=1;resizeParentMax=0;resizeLast=0;" vertex="1" parent="n1gyFduvwM2Q70atBlgJ-3">
          <mxGeometry x="274" y="110" width="116" height="50" as="geometry" />
        </mxCell>
        <mxCell id="n1gyFduvwM2Q70atBlgJ-11" value="да" style="edgeStyle=elbowEdgeStyle;fontSize=12;html=1;endArrow=blockThin;endFill=1;rounded=0;" edge="1" parent="n1gyFduvwM2Q70atBlgJ-3" source="n1gyFduvwM2Q70atBlgJ-8" target="n1gyFduvwM2Q70atBlgJ-9">
          <mxGeometry width="160" relative="1" as="geometry">
            <mxPoint x="200" y="50" as="sourcePoint" />
            <mxPoint x="270" y="50" as="targetPoint" />
          </mxGeometry>
        </mxCell>
        <mxCell id="n1gyFduvwM2Q70atBlgJ-12" value="нет" style="edgeStyle=elbowEdgeStyle;fontSize=12;html=1;endArrow=blockThin;endFill=1;rounded=0;entryX=0;entryY=0.5;entryDx=0;entryDy=0;exitX=0.5;exitY=1;exitDx=0;exitDy=0;exitPerimeter=0;" edge="1" parent="n1gyFduvwM2Q70atBlgJ-3" source="n1gyFduvwM2Q70atBlgJ-8" target="n1gyFduvwM2Q70atBlgJ-10">
          <mxGeometry width="160" relative="1" as="geometry">
            <mxPoint x="210" y="55" as="sourcePoint" />
            <mxPoint x="284" y="55" as="targetPoint" />
          </mxGeometry>
        </mxCell>
        <mxCell id="n1gyFduvwM2Q70atBlgJ-13" value="" style="edgeStyle=elbowEdgeStyle;fontSize=12;html=1;endArrow=blockThin;endFill=1;rounded=0;entryX=0.5;entryY=1;entryDx=0;entryDy=0;" edge="1" parent="n1gyFduvwM2Q70atBlgJ-3" source="n1gyFduvwM2Q70atBlgJ-10" target="n1gyFduvwM2Q70atBlgJ-9">
          <mxGeometry width="160" relative="1" as="geometry">
            <mxPoint x="460" y="140" as="sourcePoint" />
            <mxPoint x="620" y="140" as="targetPoint" />
          </mxGeometry>
        </mxCell>
        <mxCell id="n1gyFduvwM2Q70atBlgJ-18" value="Перейти к выбору отеля" style="points=[[0.25,0,0],[0.5,0,0],[0.75,0,0],[1,0.25,0],[1,0.5,0],[1,0.75,0],[0.75,1,0],[0.5,1,0],[0.25,1,0],[0,0.75,0],[0,0.5,0],[0,0.25,0]];shape=mxgraph.bpmn.task2;whiteSpace=wrap;rectStyle=rounded;size=10;html=1;container=1;expand=0;collapsible=0;taskMarker=abstract;" vertex="1" parent="n1gyFduvwM2Q70atBlgJ-3">
          <mxGeometry x="440" y="20" width="120" height="50" as="geometry" />
        </mxCell>
        <mxCell id="n1gyFduvwM2Q70atBlgJ-5" value="" style="swimlane;html=1;startSize=20;fontStyle=0;collapsible=0;horizontal=0;swimlaneLine=1;swimlaneFillColor=#ffffff;strokeWidth=2;whiteSpace=wrap;" vertex="1" parent="1">
          <mxGeometry x="80" y="240" width="940" height="100" as="geometry" />
        </mxCell>
        <mxCell id="n1gyFduvwM2Q70atBlgJ-6" value="&lt;font style=&quot;font-size: 14px;&quot;&gt;Система&lt;/font&gt;" style="text;html=1;align=center;verticalAlign=middle;whiteSpace=wrap;rounded=0;rotation=-90;" vertex="1" parent="n1gyFduvwM2Q70atBlgJ-5">
          <mxGeometry x="-20" y="30" width="60" height="30" as="geometry" />
        </mxCell>
        <mxCell id="n1gyFduvwM2Q70atBlgJ-15" value="" style="edgeStyle=elbowEdgeStyle;fontSize=12;html=1;endFill=0;startFill=0;endSize=6;startSize=6;dashed=1;dashPattern=1 4;endArrow=openThin;startArrow=none;rounded=0;exitX=0.5;exitY=1;exitDx=0;exitDy=0;" edge="1" parent="1" source="n1gyFduvwM2Q70atBlgJ-10">
          <mxGeometry width="160" relative="1" as="geometry">
            <mxPoint x="540" y="180" as="sourcePoint" />
            <mxPoint x="412" y="240" as="targetPoint" />
          </mxGeometry>
        </mxCell>
        <mxCell id="n1gyFduvwM2Q70atBlgJ-16" value="" style="fontSize=12;html=1;endFill=0;startFill=0;endSize=6;startSize=6;dashed=1;dashPattern=1 4;endArrow=openThin;startArrow=none;rounded=0;exitX=1;exitY=0.75;exitDx=0;exitDy=0;edgeStyle=orthogonalEdgeStyle;" edge="1" parent="1" source="n1gyFduvwM2Q70atBlgJ-9">
          <mxGeometry width="160" relative="1" as="geometry">
            <mxPoint x="422" y="210" as="sourcePoint" />
            <mxPoint x="480" y="240" as="targetPoint" />
          </mxGeometry>
        </mxCell>
      </root>
    </mxGraphModel>
  </diagram>
</mxfile>
